<svg>

  <symbol id="svg-soc-vk" viewBox="0 0 19 11" xmlns="http://www.w3.org/2000/svg">
    <path d="M18.0957 1.04297C18.0293 1.375 17.7637 1.93945 17.2988 2.70312C16.9668 3.26758 16.5684 3.89844 16.1035 4.62891C15.7051 5.22656 15.4727 5.52539 15.4727 5.52539C15.3398 5.72461 15.2734 5.89062 15.2734 5.99023C15.2734 6.12305 15.3398 6.25586 15.4727 6.38867L15.7715 6.7207C17.3652 8.38086 18.2617 9.50977 18.4609 10.1074C18.5273 10.373 18.4941 10.6055 18.3613 10.7383C18.2285 10.8711 18.0625 10.9375 17.7969 10.9375H15.8379C15.5723 10.9375 15.373 10.8711 15.1738 10.7051C15.041 10.6387 14.7754 10.4062 14.4434 10.0078C14.1113 9.60938 13.8125 9.27734 13.5469 9.01172C12.6504 8.18164 11.9863 7.75 11.5879 7.75C11.3887 7.75 11.2559 7.7832 11.1895 7.84961C11.123 7.91602 11.0898 8.08203 11.0898 8.28125C11.0566 8.44727 11.0566 8.7793 11.0566 9.31055V10.1738C11.0566 10.4395 10.9902 10.6387 10.8574 10.7383C10.6582 10.8711 10.2598 10.9375 9.66211 10.9375C8.59961 10.9375 7.57031 10.6387 6.50781 10.0078C5.44531 9.41016 4.51562 8.51367 3.71875 7.35156C2.95508 6.35547 2.32422 5.32617 1.82617 4.26367C1.42773 3.4668 1.0957 2.73633 0.863281 2.03906C0.697266 1.50781 0.630859 1.10938 0.630859 0.876953C0.630859 0.511719 0.830078 0.3125 1.29492 0.3125H3.25391C3.48633 0.3125 3.65234 0.378906 3.78516 0.478516C3.91797 0.611328 4.01758 0.810547 4.11719 1.07617C4.41602 1.97266 4.78125 2.83594 5.24609 3.66602C5.64453 4.46289 6.04297 5.09375 6.44141 5.55859C6.83984 6.05664 7.13867 6.28906 7.37109 6.28906C7.50391 6.28906 7.57031 6.25586 7.63672 6.15625C7.70312 6.05664 7.73633 5.85742 7.73633 5.55859V2.66992C7.70312 2.33789 7.63672 2.00586 7.50391 1.74023C7.4375 1.60742 7.30469 1.44141 7.17188 1.24219C7.00586 1.04297 6.93945 0.910156 6.93945 0.777344C6.93945 0.644531 6.97266 0.544922 7.07227 0.445312C7.17188 0.378906 7.30469 0.3125 7.4375 0.3125H10.5254C10.7246 0.3125 10.8574 0.378906 10.9238 0.478516C10.9902 0.611328 11.0566 0.777344 11.0566 1.04297V4.89453C11.0566 5.09375 11.0898 5.25977 11.1562 5.32617C11.2227 5.42578 11.2891 5.45898 11.3887 5.45898C11.4883 5.45898 11.6211 5.42578 11.7539 5.35938C11.8867 5.29297 12.0527 5.12695 12.2852 4.86133C12.6836 4.39648 13.1152 3.83203 13.5469 3.13477C13.8125 2.66992 14.1113 2.13867 14.377 1.54102L14.709 0.876953C14.8418 0.511719 15.1406 0.3125 15.5391 0.3125H17.498C18.0293 0.3125 18.2285 0.578125 18.0957 1.04297Z"/>
  </symbol>

  <symbol id="svg-soc-fb" viewBox="0 0 9 18" xmlns="http://www.w3.org/2000/svg">
    <path d="M2.55664 17.125H5.67773V9.52148H8.10156L8.5 6.5H5.67773V4.4082C5.67773 3.94336 5.74414 3.57812 5.94336 3.3457C6.14258 3.08008 6.57422 2.94727 7.17188 2.94727H8.76562V0.257812C8.16797 0.191406 7.37109 0.125 6.44141 0.125C5.24609 0.125 4.31641 0.490234 3.61914 1.1875C2.88867 1.88477 2.55664 2.84766 2.55664 4.10938V6.5H0V9.52148H2.55664V17.125Z"/>
  </symbol>

  <symbol id="svg-soc-tw" viewBox="0 0 17 15" xmlns="http://www.w3.org/2000/svg">
    <path d="M15.2402 4.17188C15.9043 3.67383 16.502 3.07617 17 2.3457C16.3359 2.64453 15.6719 2.84375 15.0078 2.91016C15.7383 2.44531 16.2695 1.81445 16.5352 0.984375C15.8379 1.38281 15.1074 1.68164 14.3105 1.81445C13.9785 1.48242 13.5801 1.2168 13.1484 1.01758C12.7168 0.818359 12.252 0.71875 11.7539 0.71875C11.123 0.71875 10.5586 0.884766 10.0273 1.18359C9.49609 1.51562 9.06445 1.94727 8.76562 2.47852C8.43359 3.00977 8.30078 3.60742 8.30078 4.20508C8.30078 4.4707 8.30078 4.73633 8.36719 5.00195C6.93945 4.93555 5.61133 4.60352 4.34961 3.93945C3.08789 3.30859 2.05859 2.44531 1.19531 1.34961C0.863281 1.91406 0.697266 2.51172 0.697266 3.10938C0.697266 3.70703 0.830078 4.27148 1.12891 4.76953C1.39453 5.30078 1.79297 5.69922 2.25781 6.03125C1.69336 6.03125 1.16211 5.86523 0.697266 5.56641V5.63281C0.697266 6.46289 0.962891 7.19336 1.49414 7.82422C2.02539 8.48828 2.68945 8.88672 3.48633 9.05273C3.1543 9.11914 2.85547 9.15234 2.55664 9.15234C2.35742 9.15234 2.125 9.15234 1.92578 9.11914C2.125 9.81641 2.52344 10.3809 3.12109 10.8457C3.71875 11.3105 4.38281 11.5098 5.17969 11.5098C3.88477 12.5059 2.42383 13.0039 0.830078 13.0039C0.498047 13.0039 0.232422 13.0039 0 12.9707C1.59375 14.0332 3.38672 14.5312 5.3457 14.5312C7.37109 14.5312 9.16406 14.0332 10.7578 12.9707C12.1855 12.041 13.3145 10.8125 14.1113 9.21875C14.875 7.75781 15.2734 6.19727 15.2734 4.60352C15.2734 4.4043 15.2402 4.27148 15.2402 4.17188Z"/>
  </symbol>

  <symbol id="svg-soc-ok" viewBox="0 0 11 18" xmlns="http://www.w3.org/2000/svg">
    <path d="M9.13086 11.2148C9.72852 10.8164 10.0938 10.5176 10.2598 10.2852C10.459 10.0195 10.459 9.6543 10.293 9.25586C10.127 8.99023 9.89453 8.79102 9.62891 8.72461C9.23047 8.6582 8.86523 8.75781 8.4668 9.05664L8.06836 9.32227C7.73633 9.52148 7.37109 9.6543 7.00586 9.78711C6.44141 9.95312 5.87695 10.0195 5.3125 10.0195C4.71484 10.0195 4.15039 9.95312 3.61914 9.78711C3.2207 9.6543 2.88867 9.52148 2.55664 9.32227L2.1582 9.05664C1.75977 8.75781 1.36133 8.6582 1.0293 8.72461C0.697266 8.79102 0.498047 8.99023 0.365234 9.25586C0.166016 9.6543 0.166016 10.0195 0.365234 10.2852C0.498047 10.5176 0.896484 10.8164 1.49414 11.2148C2.19141 11.6797 3.1875 11.9785 4.51562 12.1113L1.29492 15.332C0.962891 15.6309 0.896484 15.9629 1.0293 16.3281C1.16211 16.6934 1.39453 16.9258 1.79297 17.0586C2.1582 17.1914 2.49023 17.125 2.78906 16.8262L5.3125 14.3027L7.86914 16.8594C8.13477 17.1582 8.4668 17.2246 8.83203 17.0918C9.19727 16.959 9.46289 16.6934 9.5957 16.3281C9.72852 15.9629 9.62891 15.6309 9.36328 15.332L6.14258 12.1113C7.4043 11.9785 8.40039 11.6797 9.13086 11.2148ZM0.996094 4.44141C0.996094 5.23828 1.16211 5.93555 1.56055 6.59961C1.95898 7.26367 2.49023 7.76172 3.1543 8.16016C3.81836 8.55859 4.51562 8.72461 5.3125 8.72461C6.07617 8.72461 6.80664 8.55859 7.4707 8.16016C8.13477 7.76172 8.63281 7.26367 9.03125 6.59961C9.42969 5.93555 9.62891 5.23828 9.62891 4.44141C9.62891 3.64453 9.42969 2.94727 9.03125 2.2832C8.63281 1.61914 8.13477 1.12109 7.4707 0.722656C6.80664 0.324219 6.07617 0.125 5.3125 0.125C4.51562 0.125 3.81836 0.324219 3.1543 0.722656C2.49023 1.12109 1.95898 1.61914 1.56055 2.2832C1.16211 2.94727 0.996094 3.64453 0.996094 4.44141ZM3.1875 4.44141C3.1875 3.84375 3.38672 3.3457 3.81836 2.94727C4.2168 2.54883 4.71484 2.31641 5.3125 2.31641C5.87695 2.31641 6.375 2.54883 6.80664 2.94727C7.20508 3.3457 7.4375 3.84375 7.4375 4.44141C7.4375 5.03906 7.20508 5.53711 6.80664 5.93555C6.375 6.33398 5.87695 6.5332 5.3125 6.5332C4.71484 6.5332 4.2168 6.33398 3.81836 5.93555C3.38672 5.53711 3.1875 5.03906 3.1875 4.44141Z"/>
  </symbol>

  <symbol id="svg-arrow" viewBox="0 0 24 58" fill="none" xmlns="http://www.w3.org/2000/svg">
    <path d="M2 2L22 29L2 56" stroke="white" stroke-width="3" stroke-linecap="round" stroke-linejoin="round"/>
  </symbol>

  <symbol id="svg-logo" viewBox="0 0 83 39" xmlns="http://www.w3.org/2000/svg">
    <g clip-path="url(#clip0)">
    <path d="M1.59411 38.9028V36.5818H2.83445C3.21515 36.5801 3.54801 36.5235 3.83097 36.4142C4.11569 36.3073 4.35383 36.1575 4.54463 35.9668C4.73386 35.7769 4.87895 35.5591 4.97425 35.3135C5.06808 35.0677 5.117 34.8065 5.117 34.5304C5.117 34.2536 5.06808 33.9925 4.97425 33.7466C4.87895 33.4993 4.73386 33.2832 4.54463 33.0915C4.35383 32.9025 4.11569 32.7528 3.83097 32.6435C3.54801 32.5366 3.21515 32.4799 2.83445 32.4783H0.110352V38.9028H1.59411ZM2.6583 35.4451H1.59411V33.6149H2.6583C2.84762 33.6149 3.01195 33.6537 3.15168 33.7272C3.29424 33.8026 3.40281 33.9071 3.48053 34.0435C3.55806 34.18 3.59917 34.3419 3.59917 34.5304C3.59917 34.718 3.55806 34.8785 3.48053 35.0149C3.40281 35.1514 3.29424 35.2576 3.15168 35.3328C3.01195 35.4065 2.84762 35.4437 2.6583 35.4451ZM12.3217 38.9028L10.9806 36.3506C11.1359 36.3073 11.2878 36.2398 11.4392 36.1451C11.5904 36.0514 11.7269 35.9297 11.8526 35.7808C11.9767 35.6313 12.076 35.4515 12.1511 35.2413C12.2256 35.0312 12.2643 34.787 12.2667 34.511C12.2643 34.2141 12.2109 33.9412 12.1061 33.6939C11.9983 33.4466 11.847 33.2312 11.6494 33.0496C11.45 32.8683 11.2133 32.7289 10.9388 32.6296C10.6635 32.5295 10.358 32.4799 10.0181 32.4783H7.26002V38.9028H8.74378V36.5818H9.54112L10.6712 38.9028H12.3217ZM9.79645 35.4451H8.74378V33.6149H9.79645C9.99027 33.6149 10.1563 33.6537 10.2997 33.7272C10.4425 33.8026 10.5511 33.9071 10.631 34.0435C10.7084 34.18 10.7487 34.3419 10.7487 34.5304C10.7487 34.718 10.7084 34.8785 10.631 35.0149C10.5511 35.1514 10.4425 35.2576 10.2997 35.3328C10.1563 35.4065 9.99027 35.4437 9.79645 35.4451ZM17.3888 39.0181C17.8752 39.0151 18.3088 38.9329 18.6905 38.7678C19.0712 38.6042 19.3955 38.3731 19.6614 38.0763C19.9284 37.7771 20.1299 37.4275 20.2696 37.0227C20.4092 36.6205 20.4798 36.177 20.4798 35.6956C20.4798 35.2157 20.4092 34.7753 20.2696 34.3715C20.1299 33.9684 19.9284 33.6165 19.6614 33.318C19.3955 33.0195 19.0712 32.7885 18.6905 32.6234C18.3088 32.459 17.8752 32.3745 17.3888 32.373C16.9073 32.3745 16.4752 32.459 16.0953 32.6234C15.7152 32.7885 15.3917 33.0195 15.128 33.318C14.8627 33.6165 14.6595 33.9684 14.5206 34.3715C14.3819 34.7753 14.3127 35.2157 14.3104 35.6956C14.3127 36.177 14.3819 36.6205 14.5206 37.0227C14.6595 37.4275 14.8627 37.7771 15.128 38.0763C15.3917 38.3731 15.7152 38.6042 16.0953 38.7678C16.4752 38.9329 16.9073 39.0151 17.3888 39.0181ZM17.3888 37.8725C17.1369 37.8708 16.9151 37.8142 16.7212 37.7035C16.5295 37.5941 16.3666 37.4406 16.2355 37.2429C16.1045 37.0452 16.0075 36.8143 15.9385 36.5506C15.8718 36.2878 15.8385 36.0033 15.8385 35.6956C15.8385 35.3825 15.8718 35.0949 15.9385 34.8305C16.0075 34.5668 16.1045 34.3374 16.2355 34.1413C16.3666 33.9443 16.5295 33.7931 16.7212 33.6839C16.9151 33.5746 17.1369 33.5203 17.3888 33.5187C17.6442 33.5203 17.8698 33.5746 18.0644 33.6839C18.2608 33.7931 18.4251 33.9443 18.5578 34.1413C18.6905 34.3374 18.792 34.5668 18.861 34.8305C18.9286 35.0949 18.9627 35.3825 18.9627 35.6956C18.9627 36.0033 18.9286 36.2878 18.861 36.5506C18.792 36.8143 18.6905 37.0452 18.5578 37.2429C18.4251 37.4406 18.2608 37.5941 18.0644 37.7035C17.8698 37.8142 17.6442 37.8708 17.3888 37.8725ZM24.2291 38.9028V36.2057H26.8988V35.0692H24.2291V33.6149H26.9764V32.4783H22.7454V38.9028H24.2291ZM33.4621 38.9028V37.7662H30.715V36.2057H33.3846V35.0692H30.715V33.6149H33.4621V32.4783H29.2303V38.9028H33.4621ZM37.8529 39.0181C38.2578 39.0167 38.6162 38.9686 38.9264 38.871C39.2375 38.774 39.4996 38.6375 39.7129 38.4632C39.9255 38.288 40.0836 38.0809 40.1922 37.843C40.3017 37.6074 40.3565 37.3453 40.3565 37.0632C40.3552 36.7932 40.3069 36.5576 40.2148 36.3569C40.1239 36.1562 39.9991 35.9824 39.844 35.8368C39.6873 35.691 39.5112 35.5638 39.3149 35.4575C39.1219 35.3506 38.9202 35.2576 38.7115 35.177C38.5029 35.0949 38.3029 35.0195 38.1081 34.9505C37.9126 34.8801 37.7373 34.808 37.5806 34.7335C37.4256 34.6614 37.3 34.5785 37.2099 34.4871C37.1169 34.3956 37.0688 34.2877 37.0673 34.1638C37.0688 33.9637 37.1464 33.8049 37.3 33.6886C37.4527 33.5716 37.6637 33.511 37.9305 33.5094C38.2213 33.5094 38.5013 33.5521 38.7736 33.6405C39.0443 33.7304 39.2925 33.8652 39.5151 34.0482L40.2239 33.0855C39.9393 32.8529 39.6097 32.6761 39.2304 32.5559C38.8527 32.4334 38.4369 32.373 37.9871 32.373C37.6048 32.3745 37.2612 32.4256 36.9601 32.5234C36.6616 32.6234 36.4049 32.7598 36.1962 32.9326C35.9852 33.1062 35.8255 33.3056 35.7161 33.5297C35.6052 33.7559 35.5494 33.9955 35.5494 34.2505C35.5517 34.5219 35.5997 34.7559 35.6921 34.9552C35.7843 35.1529 35.9077 35.3242 36.0652 35.4662C36.2218 35.6087 36.3994 35.7305 36.594 35.8335C36.7904 35.936 36.9913 36.0258 37.1998 36.1033C37.4086 36.1816 37.6102 36.2553 37.8064 36.325C38.001 36.3941 38.1788 36.4678 38.3353 36.5428C38.4929 36.6205 38.6162 36.708 38.7085 36.8095C38.8007 36.9088 38.8489 37.0297 38.8512 37.1694C38.8512 37.3026 38.8117 37.4228 38.7339 37.529C38.6565 37.6359 38.5439 37.7213 38.3943 37.7857C38.2446 37.8483 38.06 37.8802 37.8428 37.8818C37.5994 37.8802 37.3667 37.8514 37.1464 37.7918C36.9269 37.7344 36.7252 37.6539 36.5414 37.5508C36.3583 37.4483 36.1977 37.3313 36.0597 37.198L35.3283 38.1903C35.62 38.4485 35.9751 38.6492 36.3909 38.795C36.8083 38.9414 37.296 39.0151 37.8529 39.0181ZM44.6156 39.0181C45.0196 39.0167 45.3779 38.9686 45.6881 38.871C45.9999 38.774 46.2621 38.6375 46.4746 38.4632C46.6872 38.288 46.8454 38.0809 46.9547 37.843C47.0633 37.6074 47.1184 37.3453 47.1184 37.0632C47.1169 36.7932 47.0687 36.5576 46.9765 36.3569C46.8857 36.1562 46.7609 35.9824 46.6057 35.8368C46.4492 35.691 46.273 35.5638 46.0776 35.4575C45.8836 35.3506 45.682 35.2576 45.4732 35.177C45.2647 35.0949 45.0645 35.0195 44.8698 34.9505C44.6752 34.8801 44.4992 34.808 44.3424 34.7335C44.1874 34.6614 44.0617 34.5785 43.9717 34.4871C43.8787 34.3956 43.8305 34.2877 43.8291 34.1638C43.8305 33.9637 43.9081 33.8049 44.0617 33.6886C44.2145 33.5716 44.4255 33.511 44.6931 33.5094C44.9831 33.5094 45.2631 33.5521 45.5353 33.6405C45.8061 33.7304 46.0542 33.8652 46.2768 34.0482L46.9858 33.0855C46.7012 32.8529 46.3714 32.6761 45.9922 32.5559C45.6144 32.4334 45.1987 32.373 44.7489 32.373C44.3666 32.3745 44.0229 32.4256 43.7219 32.5234C43.4235 32.6234 43.1667 32.7598 42.958 32.9326C42.7479 33.1062 42.5873 33.3056 42.4779 33.5297C42.367 33.7559 42.3118 33.9955 42.3118 34.2505C42.3134 34.5219 42.3616 34.7559 42.4539 34.9552C42.5461 35.1529 42.6702 35.3242 42.827 35.4662C42.9836 35.6087 43.1613 35.7305 43.3567 35.8335C43.5521 35.936 43.753 36.0258 43.9615 36.1033C44.1703 36.1816 44.3719 36.2553 44.5681 36.325C44.7628 36.3941 44.9405 36.4678 45.0971 36.5428C45.2546 36.6205 45.3779 36.708 45.4702 36.8095C45.5625 36.9088 45.6106 37.0297 45.613 37.1694C45.613 37.3026 45.5734 37.4228 45.4958 37.529C45.4182 37.6359 45.3059 37.7213 45.1561 37.7857C45.0064 37.8483 44.8218 37.8802 44.6046 37.8818C44.3611 37.8802 44.1284 37.8514 43.9081 37.7918C43.6886 37.7344 43.4878 37.6539 43.3031 37.5508C43.1201 37.4483 42.9595 37.3313 42.8214 37.198L42.0901 38.1903C42.3817 38.4485 42.7368 38.6492 43.1535 38.795C43.5699 38.9414 44.0577 39.0151 44.6156 39.0181ZM50.8127 38.9028V32.4783H49.3281V38.9028H50.8127ZM56.1458 39.0181C56.6314 39.0151 57.0658 38.9329 57.4473 38.7678C57.8281 38.6042 58.1524 38.3731 58.4185 38.0763C58.6845 37.7771 58.8869 37.4275 59.0266 37.0227C59.1661 36.6205 59.2368 36.177 59.2368 35.6956C59.2368 35.2157 59.1661 34.7753 59.0266 34.3715C58.8869 33.9684 58.6845 33.6165 58.4185 33.318C58.1524 33.0195 57.8281 32.7885 57.4473 32.6234C57.0658 32.459 56.6314 32.3745 56.1458 32.373C55.6641 32.3745 55.2323 32.459 54.8521 32.6234C54.4712 32.7885 54.1486 33.0195 53.8849 33.318C53.6189 33.6165 53.4157 33.9684 53.2777 34.3715C53.1388 34.7753 53.069 35.2157 53.0675 35.6956C53.069 36.177 53.1388 36.6205 53.2777 37.0227C53.4157 37.4275 53.6189 37.7771 53.8849 38.0763C54.1486 38.3731 54.4712 38.6042 54.8521 38.7678C55.2323 38.9329 55.6641 39.0151 56.1458 39.0181ZM56.1458 37.8725C55.8938 37.8708 55.6712 37.8142 55.478 37.7035C55.2866 37.5941 55.1229 37.4406 54.9925 37.2429C54.8614 37.0452 54.7638 36.8143 54.6955 36.5506C54.6287 36.2878 54.5954 36.0033 54.5954 35.6956C54.5954 35.3825 54.6287 35.0949 54.6955 34.8305C54.7638 34.5668 54.8614 34.3374 54.9925 34.1413C55.1229 33.9443 55.2866 33.7931 55.478 33.6839C55.6712 33.5746 55.8938 33.5203 56.1458 33.5187C56.401 33.5203 56.626 33.5746 56.8214 33.6839C57.0177 33.7931 57.1814 33.9443 57.3148 34.1413C57.4473 34.3374 57.5489 34.5668 57.6172 34.8305C57.6856 35.0949 57.7196 35.3825 57.7196 35.6956C57.7196 36.0033 57.6856 36.2878 57.6172 36.5506C57.5489 36.8143 57.4473 37.0452 57.3148 37.2429C57.1814 37.4406 57.0177 37.5941 56.8214 37.7035C56.626 37.8142 56.401 37.8708 56.1458 37.8725ZM66.9177 38.9028V32.4783H65.4224V36.1383L63.0085 32.4783H61.5015V38.9028H62.986V35.108L65.4998 38.9028H66.9177ZM74.9655 38.9028L72.7722 32.4783H70.9773L68.7848 38.9028H70.3909L70.7339 37.7662H73.0049L73.3485 38.9028H74.9655ZM72.717 36.6297H71.0332L71.8748 33.8366L72.717 36.6297ZM80.8084 38.9028V37.7662H78.3271V32.4783H76.8427V38.9028H80.8084Z"/>
    <path d="M5.81414 -0.0195312H-0.0175781V22.7507H5.81414V-0.0195312ZM14.7869 22.7507V8.19716H8.9615V22.7507H14.7869ZM34.8215 22.7507L29.0928 13.772L34.465 6.26212H27.4422L23.8495 12.1336V-0.0195312H18.0242V22.7507H23.8495V19.0294L24.9823 17.4253L27.6689 22.7507H34.8215ZM50.9072 22.7507V12.7821C50.8723 4.87682 41.48 3.40865 36.1373 7.28918L37.8012 11.317C39.6726 9.8285 45.082 9.13999 45.082 12.8823C42.8737 12.4555 39.7315 12.0005 37.4601 13.1467C36.9937 13.3822 36.5749 13.7097 36.2033 14.1134C35.8308 14.5179 35.5397 15.0186 35.3181 15.6102C35.102 16.2076 34.9891 16.9128 34.984 17.7325C34.9891 18.4833 35.102 19.1492 35.3181 19.7409C35.5397 20.3271 35.8308 20.8334 36.2033 21.2659C36.5749 21.6984 36.9958 22.051 37.4601 22.3295C39.3071 23.4405 43.2918 23.2485 45.082 21.8814V22.7507H50.9072ZM45.082 15.8732C44.9682 17.6931 44.2907 18.6438 43.2806 19.0286C41.1531 19.7227 40.2015 17.4653 41.5467 16.2202C42.3055 15.5177 43.9561 15.5919 45.082 15.8732ZM74.2112 23.1601C75.6084 23.1489 76.8485 22.9155 77.9337 22.4549C79.023 21.9943 79.9454 21.357 80.7008 20.5543C81.4555 19.7467 82.0272 18.8248 82.4215 17.7892C82.8149 16.7481 83.0149 15.6503 83.0149 14.4893C83.0149 13.3283 82.8149 12.2303 82.4215 11.195C82.0272 10.1593 81.4555 9.24315 80.7008 8.44114C79.9454 7.63904 79.023 7.0129 77.9337 6.55236C76.8485 6.09671 75.6084 5.86386 74.2112 5.85195C72.8251 5.86386 71.5899 6.09671 70.5047 6.55236C69.4211 7.0129 68.5035 7.63904 67.7488 8.44114C66.9989 9.24315 66.4273 10.1593 66.0338 11.195C65.6395 12.2303 65.4453 13.3283 65.4404 14.4893C65.4453 15.6503 65.6395 16.7481 66.0338 17.7892C66.4273 18.8248 66.9989 19.7467 67.7488 20.5543C68.5035 21.357 69.4211 21.9943 70.5047 22.4549C71.5899 22.9155 72.8251 23.1489 74.2112 23.1601ZM74.2273 11.2229C76.0411 11.2229 77.5121 12.693 77.5121 14.506C77.5121 16.319 76.0411 17.7892 74.2273 17.7892C72.4133 17.7892 70.9424 16.319 70.9424 14.506C70.9424 12.693 72.4133 11.2229 74.2273 11.2229ZM64.6624 21.9487L63.6271 17.6629C62.8641 18.4048 61.1672 18.1798 61.1672 16.6597V11.5875H64.3391V6.26212H61.1672V1.75556H55.3411V6.26212H52.7521V11.5875H55.3411V16.129C55.3411 19.1837 55.3123 21.9481 59.0165 22.8888C60.9098 23.3699 63.1376 22.987 64.6624 21.9487ZM11.8738 -0.0195312C13.6878 -0.0195312 15.1587 1.45068 15.1587 3.26353C15.1587 5.07649 13.6878 6.5467 11.8738 6.5467C10.06 6.5467 8.589 5.07649 8.589 3.26353C8.589 1.45068 10.06 -0.0195312 11.8738 -0.0195312Z"/>
    </g>
    <defs>
    <clipPath id="clip0">
    <rect width="83" height="39" fill="white"/>
    </clipPath>
    </defs>
  </symbol>

  <symbol id="svg-back" viewBox="0 0 19 8" xmlns="http://www.w3.org/2000/svg">
    <path d="M0.646446 3.64645C0.451185 3.84171 0.451185 4.15829 0.646446 4.35355L3.82843 7.53553C4.02369 7.7308 4.34027 7.7308 4.53553 7.53553C4.7308 7.34027 4.7308 7.02369 4.53553 6.82843L1.70711 4L4.53553 1.17157C4.7308 0.976311 4.7308 0.659728 4.53553 0.464466C4.34027 0.269204 4.02369 0.269204 3.82843 0.464466L0.646446 3.64645ZM19 3.5L1 3.5V4.5L19 4.5V3.5Z"/>
  </symbol>

  <symbol id="svg-menu" viewBox="0 0 16 14" xmlns="http://www.w3.org/2000/svg">
    <path d="M15.3281 2.60938C15.4336 2.60938 15.5391 2.57422 15.6094 2.50391C15.6797 2.43359 15.75 2.32812 15.75 2.1875V1.0625C15.75 0.957031 15.6797 0.851562 15.6094 0.78125C15.5391 0.710938 15.4336 0.640625 15.3281 0.640625H0.421875C0.28125 0.640625 0.175781 0.710938 0.105469 0.78125C0.0351562 0.851562 0 0.957031 0 1.0625V2.1875C0 2.32812 0.0351562 2.43359 0.105469 2.50391C0.175781 2.57422 0.28125 2.60938 0.421875 2.60938H15.3281ZM15.3281 8.23438C15.4336 8.23438 15.5391 8.19922 15.6094 8.12891C15.6797 8.05859 15.75 7.95312 15.75 7.8125V6.6875C15.75 6.58203 15.6797 6.47656 15.6094 6.40625C15.5391 6.33594 15.4336 6.26562 15.3281 6.26562H0.421875C0.28125 6.26562 0.175781 6.33594 0.105469 6.40625C0.0351562 6.47656 0 6.58203 0 6.6875V7.8125C0 7.95312 0.0351562 8.05859 0.105469 8.12891C0.175781 8.19922 0.28125 8.23438 0.421875 8.23438H15.3281ZM15.3281 13.8594C15.4336 13.8594 15.5391 13.8242 15.6094 13.7539C15.6797 13.6836 15.75 13.5781 15.75 13.4375V12.3125C15.75 12.207 15.6797 12.1016 15.6094 12.0312C15.5391 11.9609 15.4336 11.8906 15.3281 11.8906H0.421875C0.28125 11.8906 0.175781 11.9609 0.105469 12.0312C0.0351562 12.1016 0 12.207 0 12.3125V13.4375C0 13.5781 0.0351562 13.6836 0.105469 13.7539C0.175781 13.8242 0.28125 13.8594 0.421875 13.8594H15.3281Z"/>
  </symbol>

  <symbol id="svg-menu-close" viewBox="0 0 12 12" xmlns="http://www.w3.org/2000/svg">
    <path d="M6.82031 6.25L11.1797 10.6094C11.2148 10.6797 11.25 10.75 11.25 10.8203C11.25 10.8906 11.2148 10.9609 11.1797 10.9961L10.3711 11.8047C10.3008 11.875 10.2305 11.875 10.1602 11.875C10.0898 11.875 10.0195 11.875 9.98438 11.8047L5.625 7.44531L1.26562 11.8047C1.19531 11.875 1.125 11.875 1.05469 11.875C0.984375 11.875 0.914062 11.875 0.878906 11.8047L0.0703125 10.9961C0 10.9609 0 10.8906 0 10.8203C0 10.75 0 10.6797 0.0703125 10.6094L4.42969 6.25L0.0703125 1.89062C0 1.85547 0 1.78516 0 1.71484C0 1.64453 0 1.57422 0.0703125 1.50391L0.878906 0.695312C0.914062 0.660156 0.984375 0.625 1.05469 0.625C1.125 0.625 1.19531 0.660156 1.26562 0.695312L5.625 5.05469L9.98438 0.695312C10.0195 0.660156 10.0898 0.625 10.1602 0.625C10.2305 0.625 10.3008 0.660156 10.3711 0.695312L11.1797 1.50391C11.2148 1.57422 11.25 1.64453 11.25 1.71484C11.25 1.78516 11.2148 1.85547 11.1797 1.89062L10.4414 2.62891L6.82031 6.25Z"/>
  </symbol>


</svg>
